<svg width="32" height="32" viewBox="0 0 32 32" fill="none" xmlns="http://www.w3.org/2000/svg">
<path d="M29.3333 6.46658V22.3199C29.3333 23.6132 28.28 24.7999 26.9867 24.9599L26.5733 25.0132C24.3867 25.3066 21.3067 26.2132 18.8267 27.2532C17.96 27.6132 17 26.9599 17 26.0132V7.46658C17 6.97324 17.28 6.51991 17.72 6.27991C20.16 4.95991 23.8533 3.78658 26.36 3.57324H26.44C28.04 3.57324 29.3333 4.86658 29.3333 6.46658Z" fill="#004CCC"/>
<path d="M14.2773 6.27991C11.8373 4.95991 8.144 3.78658 5.63733 3.57324H5.544C3.944 3.57324 2.65067 4.86658 2.65067 6.46658V22.3199C2.65067 23.6132 3.704 24.7999 4.99733 24.9599L5.41067 25.0132C7.59733 25.3066 10.6773 26.2132 13.1573 27.2532C14.024 27.6132 14.984 26.9599 14.984 26.0132V7.46658C14.9858 7.22311 14.9209 6.9838 14.7963 6.77461C14.6717 6.56542 14.4922 6.39433 14.2773 6.27991ZM6.664 10.3199H9.664C9.92922 10.3199 10.1836 10.4253 10.3711 10.6128C10.5586 10.8003 10.664 11.0547 10.664 11.3199C10.664 11.5851 10.5586 11.8395 10.3711 12.027C10.1836 12.2146 9.92922 12.3199 9.664 12.3199H6.664C6.39878 12.3199 6.14443 12.2146 5.95689 12.027C5.76936 11.8395 5.664 11.5851 5.664 11.3199C5.664 11.0547 5.76936 10.8003 5.95689 10.6128C6.14443 10.4253 6.39878 10.3199 6.664 10.3199ZM10.664 16.3199H6.664C6.39878 16.3199 6.14443 16.2146 5.95689 16.027C5.76936 15.8395 5.664 15.5851 5.664 15.3199C5.664 15.0547 5.76936 14.8003 5.95689 14.6128C6.14443 14.4253 6.39878 14.3199 6.664 14.3199H10.664C10.9292 14.3199 11.1836 14.4253 11.3711 14.6128C11.5586 14.8003 11.664 15.0547 11.664 15.3199C11.664 15.5851 11.5586 15.8395 11.3711 16.027C11.1836 16.2146 10.9292 16.3199 10.664 16.3199Z" fill="#004CCC"/>
</svg>
