<svg width="24" height="24" viewBox="0 0 24 24" fill="none" xmlns="http://www.w3.org/2000/svg">
<g clip-path="url(#clip0_871_601)">
<path d="M24 12C24 18.6281 18.6281 24 12 24C5.37188 24 0 18.6281 0 12C0 5.37188 5.37188 0 12 0C18.6281 0 24 5.37188 24 12ZM8.33438 2.96203L8.80313 3.77906C8.92969 4.00594 9 4.26234 9 4.52344V6.46406C9 6.64687 9.075 6.825 9.20156 6.95156C9.49688 7.24688 9.975 7.17656 10.2328 6.89531L10.8703 6.09844C11.0906 5.82188 11.475 5.7375 11.7938 5.89688L12.5062 6.25312C12.6656 6.33281 12.8016 6.375 13.0219 6.375C13.3266 6.375 13.6219 6.25313 13.8375 6.0375L14.0203 5.85469C14.1563 5.67656 14.3672 5.68125 14.5359 5.77031L15.9094 6.45469C16.2703 6.6375 16.5 7.00781 16.5 7.41094C16.5 7.90313 16.1672 8.33438 15.6891 8.45156L14.0297 8.86875C13.6828 8.95312 13.3219 8.93906 12.9422 8.82656L11.4422 8.32969C11.3297 8.27812 11.1656 8.25 11.0063 8.25C10.6781 8.25 10.3172 8.35781 10.0969 8.55469L8.25 9.9375C7.77656 10.2937 7.5 10.8469 7.5 11.4375V12.75C7.5 13.9922 8.50781 15 9.75 15H11.25C11.6625 15 12 15.3375 12 15.75V18C12 18.8297 12.6703 19.5 13.5 19.5C13.9734 19.5 14.4188 19.2797 14.7 18.9L15.9 17.3016C16.2891 16.7391 16.5 16.1484 16.5 15.5016V14.9344C16.5 14.7516 16.6219 14.5922 16.8 14.55L17.0484 14.4891C17.6063 14.3484 18 13.8469 18 13.2703C18 12.8953 17.8688 12.6188 17.6344 12.3844L16.0641 10.8141C15.8484 10.5984 15.8484 10.3594 16.0641 10.1859C16.3313 9.91875 16.725 9.825 17.0859 9.94687L17.7469 10.1672C18.3234 10.3172 18.9516 10.0969 19.2234 9.55313C19.3875 9.225 19.7484 9.05156 20.0672 9.12188L21.3937 9.37969C20.2078 5.26875 16.4766 2.25 12 2.25C10.7016 2.25 9.42656 2.50312 8.33438 2.96203Z" fill="#004CCC"/>
</g>
<defs>
<clipPath id="clip0_871_601">
<rect width="24" height="24" fill="white"/>
</clipPath>
</defs>
</svg>
