<svg width="36" height="36" viewBox="0 0 36 36" fill="none" xmlns="http://www.w3.org/2000/svg">
<path d="M24.75 9H20.25C19.4215 9 18.75 9.67158 18.75 10.5V15H24.75C24.9206 14.9962 25.0824 15.0756 25.1838 15.2129C25.2852 15.3501 25.3137 15.528 25.26 15.69L24.15 18.99C24.0477 19.2928 23.7647 19.4976 23.445 19.5H18.75V30.75C18.75 31.1642 18.4142 31.5 18 31.5H14.25C13.8358 31.5 13.5 31.1642 13.5 30.75V19.5H11.25C10.8358 19.5 10.5 19.1642 10.5 18.75V15.75C10.5 15.3358 10.8358 15 11.25 15H13.5V10.5C13.5 7.18629 16.1863 4.5 19.5 4.5H24.75C25.1642 4.5 25.5 4.83579 25.5 5.25V8.25C25.5 8.66421 25.1642 9 24.75 9Z" fill="#004CCC"/>
</svg>
