<svg width="24" height="24" viewBox="0 0 24 24" fill="none" xmlns="http://www.w3.org/2000/svg">
<g clip-path="url(#clip0_871_632)">
<path d="M18.4781 6.24357C17.2594 4.29357 15.675 2.61545 14.2969 1.23732C14.2119 1.15308 14.108 1.0904 13.9938 1.05452C13.8796 1.01864 13.7585 1.0106 13.6406 1.03107C13.5219 1.04978 13.4095 1.09711 13.3131 1.16898C13.2167 1.24084 13.1393 1.33509 13.0875 1.44357L10.1906 7.51857L7.17188 5.50295C7.0063 5.39335 6.80437 5.35296 6.60938 5.39045C6.51264 5.40954 6.42062 5.44752 6.33857 5.50222C6.25653 5.55691 6.18608 5.62725 6.13125 5.7092C4.30313 8.46545 3.375 10.9592 3.375 13.1248C3.375 15.4123 4.2837 17.6061 5.9012 19.2236C7.51871 20.8411 9.71251 21.7498 12 21.7498C14.2875 21.7498 16.4813 20.8411 18.0988 19.2236C19.7163 17.6061 20.625 15.4123 20.625 13.1248C20.625 10.7904 19.9219 8.54045 18.4781 6.24357ZM17.5594 13.9873C17.382 15.1697 16.8301 16.264 15.9846 17.1095C15.1392 17.9549 14.0449 18.5068 12.8625 18.6842H12.75C12.5618 18.6828 12.3811 18.6107 12.2436 18.4822C12.1061 18.3538 12.0219 18.1783 12.0077 17.9907C11.9935 17.803 12.0504 17.6169 12.1671 17.4693C12.2838 17.3216 12.4517 17.2232 12.6375 17.1936C13.4994 17.0535 14.2954 16.6458 14.9129 16.0283C15.5304 15.4109 15.938 14.6149 16.0781 13.7529C16.0885 13.6519 16.1193 13.5541 16.1686 13.4653C16.2179 13.3765 16.2847 13.2987 16.365 13.2365C16.4453 13.1744 16.5374 13.1292 16.6357 13.1036C16.734 13.0781 16.8364 13.0728 16.9368 13.0881C17.0372 13.1033 17.1335 13.1388 17.2198 13.1923C17.306 13.2459 17.3805 13.3164 17.4388 13.3996C17.497 13.4828 17.5377 13.577 17.5584 13.6764C17.5791 13.7758 17.5795 13.8784 17.5594 13.978V13.9873Z" fill="#004CCC"/>
</g>
<defs>
<clipPath id="clip0_871_632">
<rect width="24" height="24" fill="white"/>
</clipPath>
</defs>
</svg>
