<svg width="48" height="48" viewBox="0 0 48 48" fill="none" xmlns="http://www.w3.org/2000/svg">
<g clip-path="url(#clip0_897_696)">
<path d="M44.3812 22.8376L39.75 25.1439L33.75 13.6689L38.4375 11.3251C38.7859 11.1476 39.1903 11.1149 39.5626 11.2344C39.9349 11.3538 40.2449 11.6156 40.425 11.9626L45.0375 20.7939C45.131 20.9707 45.1883 21.1644 45.2058 21.3636C45.2234 21.5628 45.201 21.7636 45.1398 21.954C45.0787 22.1444 44.9801 22.3207 44.8498 22.4724C44.7195 22.6242 44.5602 22.7484 44.3812 22.8376Z" stroke="#004CCC" stroke-width="4.5" stroke-linecap="round" stroke-linejoin="round"/>
<path d="M8.24993 24.9562L3.61868 22.6312C3.44035 22.5438 3.28143 22.4215 3.15134 22.2714C3.02126 22.1214 2.92268 21.9467 2.86145 21.7578C2.80023 21.5689 2.77762 21.3696 2.79497 21.1718C2.81231 20.9739 2.86926 20.7816 2.96243 20.6062L7.57493 11.775C7.75536 11.4282 8.06407 11.1655 8.4353 11.0429C8.80653 10.9203 9.21095 10.9475 9.56243 11.1187L14.2499 13.4625L8.24993 24.9562Z" stroke="#004CCC" stroke-width="4.5" stroke-linecap="round" stroke-linejoin="round"/>
<path d="M39.75 25.1436L37.5 28.6686L30.6 35.5686C30.4119 35.7444 30.1841 35.8721 29.9359 35.9407C29.6878 36.0092 29.4267 36.0167 29.175 35.9623L18.3 33.2436C18.1013 33.1882 17.9162 33.0924 17.7562 32.9623L8.25 24.9561" stroke="#004CCC" stroke-width="4.5" stroke-linecap="round" stroke-linejoin="round"/>
<path d="M37.4999 28.669L29.2499 22.669L26.8499 24.469C25.8101 25.245 24.5474 25.6643 23.2499 25.6643C21.9524 25.6643 20.6897 25.245 19.6499 24.469L18.6374 23.7002C18.4662 23.57 18.3246 23.405 18.2219 23.216C18.1193 23.027 18.058 22.8183 18.042 22.6038C18.0261 22.3894 18.0559 22.1739 18.1294 21.9718C18.203 21.7697 18.3186 21.5855 18.4687 21.4315L25.8187 14.1002C25.9567 13.9628 26.1205 13.854 26.3007 13.78C26.4809 13.706 26.6739 13.6683 26.8687 13.669H33.7499" stroke="#004CCC" stroke-width="4.5" stroke-linecap="round" stroke-linejoin="round"/>
<path d="M14.3625 13.4624L23.2313 10.6499C23.5731 10.5519 23.9386 10.5785 24.2625 10.7249L30.75 13.6687" stroke="#004CCC" stroke-width="4.5" stroke-linecap="round" stroke-linejoin="round"/>
<path d="M20.25 41.4187L14.6063 39.9938C14.3763 39.9418 14.1633 39.8321 13.9875 39.675L9.75 36" stroke="#004CCC" stroke-width="4.5" stroke-linecap="round" stroke-linejoin="round"/>
</g>
<defs>
<clipPath id="clip0_897_696">
<rect width="48" height="48" fill="white"/>
</clipPath>
</defs>
</svg>
