<svg width="36" height="36" viewBox="0 0 36 36" fill="none" xmlns="http://www.w3.org/2000/svg">
<path fill-rule="evenodd" clip-rule="evenodd" d="M24 4.5H12C7.85787 4.5 4.5 7.85787 4.5 12V24C4.5 28.1421 7.85787 31.5 12 31.5H24C28.1421 31.5 31.5 28.1421 31.5 24V12C31.5 7.85787 28.1421 4.5 24 4.5ZM28.875 24C28.8668 26.6889 26.6889 28.8668 24 28.875H12C9.31103 28.8668 7.13323 26.6889 7.125 24V12C7.13323 9.31103 9.31103 7.13323 12 7.125H24C26.6889 7.13323 28.8668 9.31103 28.875 12V24ZM25.125 12.375C25.9534 12.375 26.625 11.7034 26.625 10.875C26.625 10.0466 25.9534 9.375 25.125 9.375C24.2966 9.375 23.625 10.0466 23.625 10.875C23.625 11.7034 24.2966 12.375 25.125 12.375ZM18 11.25C14.2721 11.25 11.25 14.2721 11.25 18C11.25 21.728 14.2721 24.75 18 24.75C21.728 24.75 24.75 21.728 24.75 18C24.754 16.2085 24.0441 14.4894 22.7774 13.2226C21.5106 11.9559 19.7915 11.246 18 11.25ZM13.875 18C13.875 20.2782 15.7218 22.125 18 22.125C20.2782 22.125 22.125 20.2782 22.125 18C22.125 15.7218 20.2782 13.875 18 13.875C15.7218 13.875 13.875 15.7218 13.875 18Z" fill="#004CCC"/>
</svg>
