<svg width="36" height="36" viewBox="0 0 36 36" fill="none" xmlns="http://www.w3.org/2000/svg">
<path fill-rule="evenodd" clip-rule="evenodd" d="M7.5 4.5H28.5C30.1569 4.5 31.5 5.84314 31.5 7.5V28.5C31.5 30.1569 30.1569 31.5 28.5 31.5H7.5C5.84314 31.5 4.5 30.1569 4.5 28.5V7.5C4.5 5.84314 5.84314 4.5 7.5 4.5ZM12 27C12.4142 27 12.75 26.6642 12.75 26.25V15.75C12.75 15.3358 12.4142 15 12 15H9.75C9.33579 15 9 15.3358 9 15.75V26.25C9 26.6642 9.33579 27 9.75 27H12ZM10.875 13.5C9.63236 13.5 8.625 12.4926 8.625 11.25C8.625 10.0074 9.63236 9 10.875 9C12.1176 9 13.125 10.0074 13.125 11.25C13.125 12.4926 12.1176 13.5 10.875 13.5ZM26.25 27C26.6642 27 27 26.6642 27 26.25V19.35C27.0487 16.9662 25.2864 14.9318 22.92 14.64C21.2655 14.4889 19.6624 15.2616 18.75 16.65V15.75C18.75 15.3358 18.4142 15 18 15H15.75C15.3358 15 15 15.3358 15 15.75V26.25C15 26.6642 15.3358 27 15.75 27H18C18.4142 27 18.75 26.6642 18.75 26.25V20.625C18.75 19.3824 19.7574 18.375 21 18.375C22.2426 18.375 23.25 19.3824 23.25 20.625V26.25C23.25 26.6642 23.5858 27 24 27H26.25Z" fill="#004CCC"/>
</svg>
