<svg width="24" height="24" viewBox="0 0 24 24" fill="none" xmlns="http://www.w3.org/2000/svg">
<g clip-path="url(#clip0_871_609)">
<path d="M10.486 6.13125L6.98909 0.364219C6.89534 0.138234 6.65159 4.67409e-09 6.38909 4.67409e-09H0.751435C0.144404 4.67409e-09 -0.210909 0.683437 0.137372 1.18031L5.35456 8.62875C6.74534 7.33125 8.51722 6.43594 10.486 6.13125ZM12 7.5C7.44144 7.5 3.75003 11.1914 3.75003 15.75C3.75003 20.3086 7.44378 24 12 24C16.5563 24 20.25 20.3086 20.25 15.75C20.25 11.1914 16.561 7.5 12 7.5ZM16.336 14.8734L14.5603 16.6078L14.9764 19.057C15.0525 19.4906 14.5896 19.8305 14.1968 19.6195L11.9993 18.4655L9.80159 19.6172C9.40901 19.8281 8.94612 19.4883 9.02206 19.0547L9.43808 16.6055L7.66245 14.8711C7.34065 14.5594 7.52347 14.0156 7.96409 13.95L10.4194 13.5926L11.5172 11.3672C11.611 11.168 11.8043 11.0684 11.9977 11.0684C12.191 11.0684 12.3844 11.1703 12.4782 11.3672L13.5797 13.5938L16.035 13.9512C16.4813 14.0156 16.6594 14.5594 16.336 14.8734ZM23.2078 4.67409e-09H17.611C17.4814 -1.44566e-05 17.3541 0.0335277 17.2414 0.0973577C17.1287 0.161188 17.0344 0.253128 16.9678 0.364219L13.5103 6.08766C15.4791 6.39234 17.2547 7.28859 18.6432 8.58984L23.8603 1.14141C24.211 0.683437 23.8547 4.67409e-09 23.2078 4.67409e-09Z" fill="#004CCC"/>
</g>
<defs>
<clipPath id="clip0_871_609">
<rect width="24" height="24" fill="white"/>
</clipPath>
</defs>
</svg>
