<svg width="24" height="24" viewBox="0 0 24 24" fill="none" xmlns="http://www.w3.org/2000/svg">
<g clip-path="url(#clip0_872_671)">
<path d="M12 14.25C14.8995 14.25 17.25 11.8995 17.25 9C17.25 6.10051 14.8995 3.75 12 3.75C9.10051 3.75 6.75 6.10051 6.75 9C6.75 11.8995 9.10051 14.25 12 14.25Z" fill="#004CCC"/>
<path d="M12 0.750017C10.3003 0.746554 8.6412 1.26872 7.24989 2.24497C5.85859 3.22121 4.80319 4.60378 4.22828 6.20324C3.65338 7.8027 3.58711 9.5408 4.03855 11.1794C4.48998 12.818 5.43704 14.2769 6.74997 15.3563V22.5C6.7492 22.628 6.78162 22.754 6.84406 22.8657C6.90649 22.9775 6.99681 23.0711 7.10622 23.1375C7.21474 23.2057 7.33894 23.245 7.46696 23.2516C7.59497 23.2581 7.72253 23.2318 7.83747 23.175L12 21.0844L16.1625 23.175C16.2689 23.2221 16.3836 23.2475 16.5 23.25C16.6989 23.25 16.8896 23.171 17.0303 23.0303C17.1709 22.8897 17.25 22.6989 17.25 22.5V15.3563C18.5629 14.2769 19.51 12.818 19.9614 11.1794C20.4128 9.5408 20.3466 7.8027 19.7717 6.20324C19.1967 4.60378 18.1413 3.22121 16.75 2.24497C15.3587 1.26872 13.6996 0.746554 12 0.750017V0.750017ZM12 15.75C10.6649 15.75 9.3599 15.3541 8.24987 14.6124C7.13984 13.8707 6.27467 12.8165 5.76378 11.5831C5.25289 10.3497 5.11922 8.99253 5.37967 7.68316C5.64012 6.37379 6.28299 5.17105 7.227 4.22705C8.171 3.28304 9.37374 2.64017 10.6831 2.37972C11.9925 2.11927 13.3497 2.25294 14.5831 2.76383C15.8165 3.27472 16.8707 4.13989 17.6124 5.24992C18.3541 6.35995 18.75 7.66499 18.75 9.00002C18.7475 10.7895 18.0355 12.5049 16.7702 13.7702C15.5049 15.0356 13.7894 15.7475 12 15.75Z" fill="#004CCC"/>
</g>
<defs>
<clipPath id="clip0_872_671">
<rect width="24" height="24" fill="white"/>
</clipPath>
</defs>
</svg>
