<svg width="45" height="36" viewBox="0 0 45 36" fill="none" xmlns="http://www.w3.org/2000/svg">
<path d="M12.6914 5.22168C5.68216 5.22168 0 10.9431 0 18.0001C0 25.0572 5.68259 30.7786 12.6914 30.7786C19.7002 30.7786 25.3828 25.0576 25.3828 18.0001C25.3828 10.9427 19.7009 5.22168 12.6914 5.22168ZM32.959 5.97023C29.4543 5.97023 26.6136 11.3575 26.6136 18.0003C26.6136 24.6432 29.4547 30.0308 32.9594 30.0308C36.4641 30.0308 39.3052 24.6435 39.3052 18.0003H39.3047C39.3047 11.3556 36.4641 5.97023 32.9591 5.97023H32.959ZM42.768 7.22327C41.5357 7.22327 40.5366 12.0487 40.5366 18.0003C40.5366 23.952 41.5351 28.7774 42.768 28.7774C44.0009 28.7774 45 23.9507 45 18.0001C45 12.0482 44.0005 7.22327 42.7681 7.22327H42.768Z" fill="#004CCC"/>
</svg>
