<svg width="32" height="32" viewBox="0 0 32 32" fill="none" xmlns="http://www.w3.org/2000/svg">
<path d="M22.6666 3.23926H9.33329C5.33329 3.23926 2.66663 5.90592 2.66663 9.90592V17.9059C2.66663 21.9059 5.33329 24.5726 9.33329 24.5726V27.4126C9.33329 28.4793 10.52 29.1193 11.4 28.5193L17.3333 24.5726H22.6666C26.6666 24.5726 29.3333 21.9059 29.3333 17.9059V9.90592C29.3333 5.90592 26.6666 3.23926 22.6666 3.23926ZM16 19.4659C15.7347 19.4659 15.4804 19.3606 15.2929 19.173C15.1053 18.9855 15 18.7311 15 18.4659C15 18.2007 15.1053 17.9464 15.2929 17.7588C15.4804 17.5713 15.7347 17.4659 16 17.4659C16.2652 17.4659 16.5195 17.5713 16.7071 17.7588C16.8946 17.9464 17 18.2007 17 18.4659C17 18.7311 16.8946 18.9855 16.7071 19.173C16.5195 19.3606 16.2652 19.4659 16 19.4659ZM17.68 13.9326C17.16 14.2793 17 14.5059 17 14.8793V15.1593C17 15.7059 16.5466 16.1593 16 16.1593C15.4533 16.1593 15 15.7059 15 15.1593V14.8793C15 13.3326 16.1333 12.5726 16.56 12.2793C17.0533 11.9459 17.2133 11.7193 17.2133 11.3726C17.2133 10.7059 16.6666 10.1593 16 10.1593C15.3333 10.1593 14.7866 10.7059 14.7866 11.3726C14.7866 11.9193 14.3333 12.3726 13.7866 12.3726C13.24 12.3726 12.7866 11.9193 12.7866 11.3726C12.7866 9.59926 14.2266 8.15926 16 8.15926C17.7733 8.15926 19.2133 9.59926 19.2133 11.3726C19.2133 12.8926 18.0933 13.6526 17.68 13.9326Z" fill="#004CCC"/>
</svg>
