<svg width="36" height="36" viewBox="0 0 36 36" fill="none" xmlns="http://www.w3.org/2000/svg">
<path d="M25.5 31.5007C23.0195 31.4984 20.5775 30.8854 18.39 29.7157L17.715 29.3407C13.0511 26.8331 9.22754 23.0095 6.72 18.3457L6.345 17.6707C5.14473 15.4708 4.5107 13.0067 4.5 10.5006V9.49565C4.49937 8.69609 4.81794 7.92935 5.385 7.36565L7.92 4.83065C8.1662 4.58255 8.51372 4.46297 8.86044 4.50704C9.20717 4.55111 9.51372 4.75385 9.69 5.05565L13.065 10.8456C13.4063 11.435 13.3077 12.1803 12.825 12.6606L9.99 15.4957C9.75456 15.7285 9.69971 16.0882 9.855 16.3807L10.38 17.3707C12.2656 20.8633 15.134 23.7265 18.63 25.6057L19.62 26.1457C19.9125 26.3009 20.2722 26.246 20.505 26.0107L23.34 23.1757C23.8203 22.693 24.5657 22.5944 25.155 22.9357L30.945 26.3107C31.2468 26.4869 31.4496 26.7935 31.4936 27.1402C31.5377 27.487 31.4181 27.8345 31.17 28.0807L28.635 30.6157C28.0713 31.1827 27.3045 31.5013 26.505 31.5007H25.5Z" fill="#004CCC"/>
</svg>
