<svg width="24" height="24" viewBox="0 0 24 24" fill="none" xmlns="http://www.w3.org/2000/svg">
<g clip-path="url(#clip0_871_649)">
<path d="M7.34063 18.0422L5.89219 16.5516C5.49375 16.1953 5.35313 15.6141 5.48906 15.0844C5.62969 14.6672 5.81719 14.1235 6.08438 13.5H1.125C0.720938 13.5 0.347532 13.2844 0.147469 12.9328C0.0491735 12.7604 -0.00169429 12.5651 4.30565e-05 12.3667C0.0017804 12.1682 0.0560609 11.9738 0.15736 11.8031L2.61703 7.65471C3.22453 6.62815 4.32797 5.95783 5.52188 5.95783H9.375C9.4875 5.81252 9.6 5.63908 9.7125 5.47033C13.5516 -0.190761 19.2703 -0.381636 22.6828 0.247286C23.2312 0.347552 23.6531 0.770177 23.7516 1.31533C24.3797 4.72971 24.1922 10.4485 18.5297 14.2875C18.3656 14.4 18.1453 14.5125 18 14.5828V18.4781C18 19.6735 17.3719 20.775 16.3453 21.3844L12.1969 23.8406C11.85 24.0469 11.4188 24.0516 11.0672 23.8547C10.7156 23.6531 10.5 23.2781 10.5 22.875V17.85C9.83906 18.075 9.2625 18.2672 8.82656 18.4078C8.30156 18.5766 7.72969 18.4313 7.34063 18.0422V18.0422ZM18 7.83283C19.0359 7.83283 19.875 7.03596 19.875 5.95783C19.875 4.96408 19.0359 4.08283 18 4.08283C16.9641 4.08283 16.125 4.96408 16.125 5.95783C16.125 7.03596 16.9641 7.83283 18 7.83283Z" fill="#004CCC"/>
</g>
<defs>
<clipPath id="clip0_871_649">
<rect width="24" height="24" fill="white"/>
</clipPath>
</defs>
</svg>
