<svg width="48" height="48" viewBox="0 0 48 48" fill="none" xmlns="http://www.w3.org/2000/svg">
<g clip-path="url(#clip0_897_657)">
<path d="M12 30C15.3137 30 18 27.3137 18 24C18 20.6863 15.3137 18 12 18C8.68629 18 6 20.6863 6 24C6 27.3137 8.68629 30 12 30Z" stroke="#004CCC" stroke-width="4.5" stroke-linecap="round" stroke-linejoin="round"/>
<path d="M33 43.5C36.3137 43.5 39 40.8137 39 37.5C39 34.1863 36.3137 31.5 33 31.5C29.6863 31.5 27 34.1863 27 37.5C27 40.8137 29.6863 43.5 33 43.5Z" stroke="#004CCC" stroke-width="4.5" stroke-linecap="round" stroke-linejoin="round"/>
<path d="M33 16.5C36.3137 16.5 39 13.8137 39 10.5C39 7.18629 36.3137 4.5 33 4.5C29.6863 4.5 27 7.18629 27 10.5C27 13.8137 29.6863 16.5 33 16.5Z" stroke="#004CCC" stroke-width="4.5" stroke-linecap="round" stroke-linejoin="round"/>
<path d="M27.9562 13.7437L17.0437 20.7562" stroke="#004CCC" stroke-width="4.5" stroke-linecap="round" stroke-linejoin="round"/>
<path d="M17.0437 27.2437L27.9562 34.2562" stroke="#004CCC" stroke-width="4.5" stroke-linecap="round" stroke-linejoin="round"/>
</g>
<defs>
<clipPath id="clip0_897_657">
<rect width="48" height="48" fill="white"/>
</clipPath>
</defs>
</svg>
