<svg width="36" height="36" viewBox="0 0 36 36" fill="none" xmlns="http://www.w3.org/2000/svg">
<path d="M31.4585 10.0761C30.7619 11.0054 29.9198 11.816 28.9648 12.4766C28.9648 12.7194 28.9648 12.9621 28.9648 13.2184C28.9724 17.6267 27.2116 21.8537 24.077 24.9518C20.9423 28.0499 16.6961 29.7599 12.2904 29.6984C9.74332 29.7069 7.22884 29.1254 4.94396 27.9992C4.82075 27.9453 4.7413 27.8235 4.74176 27.6889V27.5406C4.74176 27.347 4.89868 27.1901 5.09224 27.1901C7.59596 27.1074 10.0104 26.2394 11.9938 24.7086C9.72763 24.6629 7.68862 23.3204 6.75023 21.2561C6.70285 21.1434 6.71759 21.014 6.78919 20.9148C6.86077 20.8157 6.97883 20.7611 7.10071 20.7707C7.78946 20.8398 8.4851 20.7758 9.14963 20.5818C6.64792 20.0625 4.76815 17.9856 4.49912 15.4436C4.48957 15.3216 4.54421 15.2036 4.64333 15.1319C4.74244 15.0603 4.87169 15.0455 4.9844 15.093C5.65574 15.3893 6.38047 15.5453 7.11419 15.5514C4.92209 14.1127 3.97525 11.3761 4.80916 8.88933C4.89524 8.6477 5.10205 8.46918 5.35358 8.41941C5.6051 8.36963 5.86427 8.45592 6.03581 8.64659C8.99392 11.7949 13.0584 13.6709 17.3722 13.8792C17.2618 13.4383 17.2075 12.9851 17.2105 12.5306C17.2508 10.1471 18.7256 8.02382 20.9444 7.15481C23.1631 6.28581 25.6867 6.84305 27.3338 8.56566C28.4564 8.35178 29.5418 7.97468 30.5554 7.44632C30.6296 7.39997 30.7238 7.39997 30.7981 7.44632C30.8444 7.5206 30.8444 7.61478 30.7981 7.68906C30.3071 8.81328 29.4778 9.75618 28.4257 10.3863C29.347 10.2794 30.2521 10.0621 31.1216 9.73896C31.1948 9.68913 31.291 9.68913 31.3642 9.73896C31.4255 9.76701 31.4714 9.82067 31.4896 9.88563C31.5077 9.9506 31.4963 10.0203 31.4585 10.0761Z" fill="#004CCC"/>
</svg>
