<svg width="36" height="36" viewBox="0 0 36 36" fill="none" xmlns="http://www.w3.org/2000/svg">
<g clip-path="url(#clip0_953_951)">
<path d="M22.5 18L15.75 13.5V22.5L22.5 18Z" stroke="#004CCC" stroke-width="2.25" stroke-linecap="round" stroke-linejoin="round"/>
<path d="M3.375 18C3.375 22.1906 3.81094 24.6375 4.13437 25.9031C4.22356 26.2465 4.3922 26.5642 4.6267 26.8304C4.8612 27.0967 5.15499 27.3041 5.48438 27.4359C10.1953 29.2359 18 29.1937 18 29.1937C18 29.1937 25.8047 29.2359 30.5156 27.4359C30.845 27.3041 31.1388 27.0967 31.3733 26.8304C31.6078 26.5642 31.7764 26.2465 31.8656 25.9031C32.1891 24.6375 32.625 22.1906 32.625 18C32.625 13.8094 32.1891 11.3625 31.8656 10.0969C31.7764 9.75346 31.6078 9.43582 31.3733 9.16957C31.1388 8.90331 30.845 8.6959 30.5156 8.56405C25.8047 6.76405 18 6.80624 18 6.80624C18 6.80624 10.1953 6.76405 5.48438 8.56405C5.15499 8.6959 4.8612 8.90331 4.6267 9.16957C4.3922 9.43582 4.22356 9.75346 4.13437 10.0969C3.81094 11.3625 3.375 13.8094 3.375 18V18Z" stroke="#004CCC" stroke-width="2.25" stroke-linecap="round" stroke-linejoin="round"/>
</g>
<defs>
<clipPath id="clip0_953_951">
<rect width="36" height="36" fill="white"/>
</clipPath>
</defs>
</svg>
